<svg xmlns="http://www.w3.org/2000/svg" version="1.1" xmlns:xlink="http://www.w3.org/1999/xlink" xmlns:svgjs="http://svgjs.com/svgjs" width="1440" height="560" preserveAspectRatio="none" viewBox="0 0 1440 560"><g mask="url(&quot;#SvgjsMask1008&quot;)" fill="none"><rect width="1440" height="560" x="0" y="0" fill="rgba(3, 135, 80, 1)"></rect><path d="M 0,209 C 57.6,186.4 172.8,97 288,96 C 403.2,95 460.8,204.2 576,204 C 691.2,203.8 748.8,107 864,95 C 979.2,83 1036.8,142 1152,144 C 1267.2,146 1382.4,112.8 1440,105L1440 560L0 560z" fill="rgba(2, 175, 80, 1)"></path><path d="M 0,537 C 96,486.4 288,306.6 480,284 C 672,261.4 768,420.8 960,424 C 1152,427.2 1344,324.8 1440,300L1440 560L0 560z" fill="rgba(3, 151, 83, 1)"></path></g><defs><mask id="SvgjsMask1008"><rect width="1440" height="560" fill="#ffffff"></rect></mask></defs></svg>